<?xml version="1.0" encoding="UTF-8"?>
<svg version="1.1" xmlns="http://www.w3.org/2000/svg" viewBox="200 400 1648 1300">
<path d="M0 0 C81.84 0 163.68 0 248 0 C248 20.46 248 40.92 248 62 C267.14 62.33 286.28 62.66 306 63 C305.67 62.34 305.34 61.68 305 61 C305 40.87 305 20.74 305 0 C589.13 0 873.26 0 1166 0 C1166 20.13 1166 40.26 1166 61 C1165.67 61.33 1165.34 61.66 1165 62 C1185.46 62.33 1205.92 62.66 1227 63 C1227 63.66 1227 64.32 1227 65 C1226.34 65 1225.68 65 1225 65 C1225 84.47 1225 103.94 1225 124 C982.78 124 740.56 124 491 124 C491 103.54 491 83.08 491 62 C430.28 62 369.56 62 307 62 C307 83.12 307 104.24 307 126 C286.54 126 266.08 126 245 126 C245 147.12 245 168.24 245 190 C305.72 190 366.44 190 429 190 C429 210.79 429 231.58 429 253 C307.89 253 186.78 253 62 253 C62 297.22 62 341.44 62 387 C122.39 387 182.78 387 245 387 C245 366.54 245 346.08 245 325 C265.13 325 285.26 325 306 325 C306 343.48 306 361.96 306 381 C407.31 381 508.62 381 613 381 C613 401.46 613 421.92 613 443 C572.74 443 532.48 443 491 443 C491 484.25 491 525.5 491 568 C470.87 568 450.74 568 430 568 C430 526.75 430 485.5 430 443 C389.08 443 348.16 443 306 443 C306 588.53 306 734.06 306 884 C346.92 884 387.84 884 430 884 C430 863.54 430 843.08 430 822 C450.13 822 470.26 822 491 822 C491 758.97 491 695.94 491 631 C511.13 631 531.26 631 552 631 C552 610.21 552 589.42 552 568 C572.13 568 592.26 568 613 568 C613 547.54 613 527.08 613 506 C633.46 506 653.92 506 675 506 C675 568.04 675 630.08 675 694 C654.54 694 634.08 694 613 694 C612.1562357 701.96950879 612.1562357 701.96950879 611.875 709.875 C611.87113281 711.20144531 611.87113281 711.20144531 611.8671875 712.5546875 C611.91675119 714.95953988 611.91675119 714.95953988 612.53515625 717.0625 C613.07138884 719.29755349 612.89207531 720.8545923 612.5625 723.125 C612.00562335 728.0709439 611.84929441 732.96558992 611.8125 737.9375 C611.79968994 738.66404785 611.78687988 739.3905957 611.77368164 740.13916016 C611.76596996 744.22816673 612.14833279 747.9690232 613.00439453 751.9699707 C614.20231271 758.39300677 614.23543001 764.62401226 614.16015625 771.140625 C614.15459213 772.39812561 614.14902802 773.65562622 614.14329529 774.95123291 C614.13091226 777.65063042 614.11520074 780.34975656 614.09375 783.04907227 C614.03799572 790.19406157 614.02122508 797.33920689 614.00390625 804.484375 C614.00084158 805.57309402 614.00084158 805.57309402 613.997715 806.68380737 C613.93663041 830.1302244 614.50124124 853.55833835 615 877 C615 858.85 615 840.7 615 822 C634.8 822 654.6 822 675 822 C675 842.46 675 862.92 675 884 C755.85 884 836.7 884 920 884 C920 863.54 920 843.08 920 822 C940.46 822 960.92 822 982 822 C982 758.97 982 695.94 982 631 C1002.13 631 1022.26 631 1043 631 C1043 694.03 1043 757.06 1043 822 C1049.27 822 1055.54 822 1062 822 C1062 842.46 1062 862.92 1062 884 C1116.12 884 1170.24 884 1226 884 C1226 738.47 1226 592.94 1226 443 C1155.38 443 1084.76 443 1012 443 C1012 463.79 1012 484.58 1012 506 C998.47 506 984.94 506 971 506 C971 485.21 971 464.42 971 443 C934.37 443 897.74 443 860 443 C860 422.54 860 402.08 860 381 C980.78 380.67 1101.56 380.34 1226 380 C1226.33 295.85 1226.66 211.7 1227 125 C1246.8 125 1266.6 125 1287 125 C1286.67 414.41 1286.34 703.82 1286 1002 C1266.53 1002 1247.06 1002 1227 1002 C1221.82338087 981.29352348 1225.35567973 959.34078367 1225 938 C1099.27 937.505 1099.27 937.505 971 937 C971 919.51 971 902.02 971 884 C954.5 884 938 884 921 884 C921 904.79 921 925.58 921 947 C937.5 947 954 947 971 947 C971 958.22 971 969.44 971 981 C954.5 981 938 981 921 981 C921 995.19 921 1009.38 921 1024 C819.36 1024 717.72 1024 613 1024 C613 1009.81 613 995.62 613 981 C592.54 981 572.08 981 551 981 C551 970.11 551 959.22 551 948 C470.48 948 389.96 948 307 948 C307 967.14 307 986.28 307 1006 C225.82 1006 144.64 1006 61 1006 C61 1031.08 61 1056.16 61 1082 C121.72 1082 182.44 1082 245 1082 C245 1076.06 245 1070.12 245 1064 C548.27 1064 851.54 1064 1164 1064 C1164 1084.13 1164 1104.26 1164 1125 C860.73 1125 557.46 1125 245 1125 C245 1131.27 245 1137.54 245 1144 C184.61 1144 124.22 1144 62 1144 C62 1138.39 62 1132.78 62 1127 C59.55108627 1125.77554313 57.94267385 1125.86179407 55.2038269 1125.84178162 C54.19137909 1125.8319928 53.17893127 1125.82220398 52.13580322 1125.81211853 C51.02090515 1125.80636307 49.90600708 1125.8006076 48.75732422 1125.79467773 C47.00124344 1125.77982834 47.00124344 1125.77982834 45.20968628 1125.76467896 C41.99504408 1125.73845892 38.78040726 1125.71661018 35.56572104 1125.69667697 C32.20777794 1125.67483113 28.84988031 1125.6474356 25.49197388 1125.62062073 C19.13135762 1125.57067484 12.77071614 1125.52574306 6.41005051 1125.48259836 C-1.54046904 1125.4284027 -9.4909357 1125.36753975 -17.44140625 1125.30664062 C-31.62756358 1125.19800684 -45.81376901 1125.09948565 -60 1125 C-60 1105.2 -60 1085.4 -60 1065 C-40.2 1065 -20.4 1065 0 1065 C0 859.74 0 654.48 0 443 C-20.13 443 -40.26 443 -61 443 C-61 422.54 -61 402.08 -61 381 C-81.13 381 -101.26 381 -122 381 C-122 546.99 -122 712.98 -122 884 C-101.54 884 -81.08 884 -60 884 C-60 899.84 -60 915.68 -60 932 C-80.46 931.67 -100.92 931.34 -122 931 C-121.98839844 936.11371094 -121.97679687 941.22742187 -121.96484375 946.49609375 C-121.95973689 949.7272148 -121.95492311 952.95833091 -121.95117188 956.18945312 C-121.94518384 961.3230085 -121.93808462 966.45654612 -121.92456055 971.59008789 C-121.91373025 975.726794 -121.90772286 979.86348108 -121.90512276 984.00020027 C-121.90326876 985.58192304 -121.89964864 987.16364471 -121.89426994 988.74535942 C-121.8870576 990.95322838 -121.88600914 993.16101773 -121.88647461 995.36889648 C-121.884254 996.62798325 -121.88203339 997.88707001 -121.87974548 999.18431091 C-122 1002 -122 1002 -123 1003 C-125.33333333 1003 -127.66666667 1003 -130 1003 C-130.99 1003.33 -131.98 1003.66 -133 1004 C-134.90906837 1003.77712773 -136.81777964 1003.54822578 -138.72070312 1003.27786255 C-142.71838206 1002.79051697 -146.72694405 1002.76218238 -150.75 1002.68359375 C-151.64871826 1002.66281265 -152.54743652 1002.64203156 -153.47338867 1002.62062073 C-156.31552236 1002.55576947 -159.15774033 1002.49654304 -162 1002.4375 C-163.93881044 1002.39425335 -165.87761268 1002.35063721 -167.81640625 1002.30664062 C-172.54418671 1002.20015513 -177.27205107 1002.09871053 -182 1002 C-183.07971117 998.7608665 -183.12468608 996.43103337 -183.1241985 993.02329093 C-183.12756944 991.13396816 -183.12756944 991.13396816 -183.13100848 989.20647725 C-183.12844248 987.79807621 -183.12578555 986.38967533 -183.12304783 984.9812746 C-183.12378699 983.48723379 -183.12496506 981.99319315 -183.12654433 980.49915299 C-183.12962732 976.36487138 -183.12642669 972.23061418 -183.12226619 968.09633438 C-183.11884401 963.60949638 -183.12120049 959.12266096 -183.12284368 954.63582247 C-183.12492184 946.76263668 -183.12326613 938.88945842 -183.11920547 931.0162735 C-183.11318409 919.30903346 -183.1128684 907.6017982 -183.11374746 895.89455689 C-183.11506313 876.20356091 -183.11171327 856.51256827 -183.10573006 836.82157326 C-183.09981868 817.31714677 -183.09596525 797.81272167 -183.09487724 778.3082943 C-183.0948085 777.09683343 -183.09473976 775.88537256 -183.09466894 774.63720076 C-183.09433062 768.48512838 -183.09402923 762.33305601 -183.09374207 756.18098363 C-183.09164009 712.5741867 -183.08489838 668.9673916 -183.07543945 625.3605957 C-183.06625922 582.98982757 -183.05917355 540.61905994 -183.05493164 498.24829102 C-183.05480011 496.94288073 -183.05466859 495.63747044 -183.05453308 494.29250226 C-183.05321459 481.18336959 -183.05193877 468.07423692 -183.05069422 454.96510424 C-183.04815781 428.25885589 -183.04533656 401.55260756 -183.04234314 374.84635925 C-183.04220585 373.6183738 -183.04206856 372.39038835 -183.04192711 371.12519123 C-183.03272211 289.08346005 -183.0167997 207.04172993 -183 125 C-163.2 124.67 -143.4 124.34 -123 124 C-123 103.87 -123 83.74 -123 63 C-82.41 63 -41.82 63 0 63 C0 42.21 0 21.42 0 0 Z " fill="#221F32" transform="translate(472,453)"/>
</svg>